<svg width="96" height="96" viewBox="0 0 96 96" fill="none" xmlns="http://www.w3.org/2000/svg">
<g id="Camera enhance" clip-path="url(#clip0_9_62)">
<path id="Vector" d="M36 12L28.68 20H16C11.6 20 8 23.6 8 28V76C8 80.4 11.6 84 16 84H80C84.4 84 88 80.4 88 76V28C88 23.6 84.4 20 80 20H67.32L60 12H36ZM48 72C36.96 72 28 63.04 28 52C28 40.96 36.96 32 48 32C59.04 32 68 40.96 68 52C68 63.04 59.04 72 48 72Z" fill="#D1D1D1"/>
<path id="Vector_2" d="M48 68L53 57L64 52L53 47L48 36L43 47L32 52L43 57L48 68Z" fill="#D1D1D1"/>
</g>
<defs>
<clipPath id="clip0_9_62">
<rect width="96" height="96" fill="white"/>
</clipPath>
</defs>
</svg>
