
        <svg xmlns="http://www.w3.org/2000/svg" xmlns:xlink="http://www.w3.org/1999/xlink" version="1.1" width="3162.208309618669" height="833.6378494994747" viewBox="0 0 3162.208309618669 833.6378494994747">
			
			<g transform="scale(8.11041548093341) translate(10, 10)">
				<defs id="SvgjsDefs10344"/><g id="SvgjsG10345" featureKey="symbolFeature-0" transform="matrix(1.0627758957092956,0,0,1.0627758957092956,-8.318166168460348,-6.863089690420974)" fill="#000"><path xmlns="http://www.w3.org/2000/svg" d="M83.719017,19.0917759c-4.414093-3.5342922-9.8653641-5.7880373-15.2154083-7.4757633  c-2.9099655-0.9179707-5.8915176-1.6039829-8.9076767-2.0692301c0.0715714-0.5539703-0.2745171-1.2285719-1.0000992-1.2893972  C51.957119,7.7008252,45.320282,7.0895057,38.6766434,6.595315c-3.1724243-0.2359896-6.3613968-0.2419214-9.4565582,0.5800886  c-2.5177574,0.6686478-4.8561592,1.9959908-6.8843002,3.6081047c-4.380497,3.4819984-7.2139273,8.4476852-9.1266508,13.6292248  c-2.165926,5.8677158-3.5406237,12.0689564-4.421298,18.252615c-0.8496327,5.9649887-1.3524466,12.2243958-0.5755262,18.223568  c0.700079,5.4064178,2.9876127,10.2686844,7.448842,13.5410995c4.347826,3.1892776,9.7426414,4.6653519,14.8909569,5.9886475  c6.207798,1.5955963,12.5428391,2.6837921,18.9199409,3.3139572c6.2691727,0.6194839,12.5949478,0.790947,18.8863258,0.4450302  c5.4228973-0.2981491,11.1098785-1.2703476,15.4529495-4.768692c4.1535873-3.345726,6.3659821-8.4241028,7.8565979-13.4118195  c1.7875214-5.980442,2.6782455-12.2337189,2.8104477-18.4680405C94.6990814,37.1255264,92.2087784,25.8894501,83.719017,19.0917759z   M92.1053848,53.3971291c-0.6094666,5.869648-1.8581619,11.9481163-4.3250885,17.3374977  c-1.1141968,2.4343033-2.5916519,4.6709442-4.5428467,6.5138397c-2.0278168,1.9153137-4.6298828,3.069046-7.2871246,3.8069992  c-2.7110596,0.7529068-5.5433426,0.9958344-8.3432693,1.1376572c-3.1654739,0.1603241-6.3399048,0.1691513-9.5076256,0.0800018  c-6.4465141-0.1814117-12.8692665-0.8999176-19.2080193-2.0799332c-5.7911644-1.0780792-11.7643375-2.3904114-17.2039089-4.7027206  c-2.3860073-1.0142593-4.6369705-2.3287735-6.5388489-4.1018524c-2.0222187-1.8853073-3.3310337-4.3180084-4.1391306-6.9379883  c-1.7408457-5.6443977-1.2530155-12.0816803-0.6719255-17.8709793c0.6351042-6.3259354,1.9331484-12.6127129,3.8109789-18.6857033  c2.4072752-7.785532,6.8610659-15.9110346,15.0841188-18.61343c4.5440693-1.4933844,9.6098614-0.6663809,14.2671261-0.2759438  c2.0376625,0.1708307,4.0752258,0.3416529,6.1127892,0.512475c-0.1227531,0.5776167,0.2219353,1.2970676,0.9948692,1.3062239  c6.1683693,0.0730381,12.2689972,1.0950203,18.1395988,2.9856901c5.514946,1.7761354,11.1377716,4.3075609,15.392189,8.3247156  C92.3783035,29.913187,93.2031937,42.824852,92.1053848,53.3971291z"/><path xmlns="http://www.w3.org/2000/svg" d="M72.7138901,48.1577492c-8.4723129-9.0928154-17.9309807-17.2091408-28.1761589-24.2420559  c-0.3547859-0.2435684-0.9542885-0.1108265-1.2172623,0.2086582c-0.9035797,1.0977097-1.3976364,2.4152546-1.3434181,3.8132172  c-5.6188698,10.8408928-8.6615601,22.9079208-8.8755264,35.122673c-0.0092812,0.5266876,0.5264816,1.0225143,1.0517769,0.9680176  c6.5911255-0.6838646,12.4976082-4.0244102,18.4795265-6.6203728c6.4541359-2.8009262,13.0346603-5.3081856,19.7053833-7.5437279  C73.0987167,49.6093025,73.2262115,48.7076225,72.7138901,48.1577492z M44.3401489,26.2242928  c0.1409912,0.0979729,0.2804909,0.1982174,0.4212036,0.2966328c-0.0713997,0.1006775-0.1358604,0.2091713-0.1945419,0.3235359  c-0.0494423-0.1821728-0.1539345-0.3434525-0.2948914-0.4692364C44.293232,26.3245125,44.3162422,26.2742863,44.3401489,26.2242928z   M43.4890518,29.4190178c0.0450439-0.0144024,0.0885735-0.0320263,0.1303101-0.0523548  c-0.1779327,0.4762726-0.3537598,0.9533348-0.5266762,1.4314232c-1.2308807,3.4037609-2.2706566,6.8752613-3.1515541,10.385294  c-1.6733894,6.66716-2.6665001,13.4985199-3.0510025,20.3596802c-0.5761795,0.1280823-1.1563835,0.2377815-1.7410316,0.3261185  C35.5112419,50.5903435,38.3805809,39.4745979,43.4890518,29.4190178z M52.7328949,55.1730194  c-4.511837,1.9324265-9.0301247,4.4216537-13.7980576,5.8364601c0.3371811-5.5365906,1.1108208-11.0327835,2.2926254-16.4538383  c0.6379509-2.9266663,1.4130211-5.8225899,2.2925949-8.6855545c0.4398346-1.4315872,0.917099-2.8514786,1.4164352-4.2632923  c0.2621803-0.7412682,0.536396-1.4781723,0.8166351-2.2127552c0.1334877-0.3498039,0.2706871-0.6981907,0.4078865-1.046566  c0.0460701-0.1159668,0.0922356-0.231926,0.1383057-0.3478909c0.0122757-0.0185013,0.018898-0.0326691,0.029541-0.0499554  c0.1189384-0.0050182,0.2363129-0.0286064,0.3460579-0.0694027c8.4683838,6.1034946,16.3521881,13.0020847,23.5422058,20.5708904  C64.3073502,50.4734955,58.4751701,52.7136078,52.7328949,55.1730194z"/></g><g id="SvgjsG10346" featureKey="nameFeature-0" transform="matrix(2.4627075423593436,0,0,2.4627075423593436,111.99999765137906,-20.218115275606927)" fill="#000"><path d="M26.16 20.6 l4.96 0 l0 19.4 l-4.96 0 l0 -4.2 l-4.84 0 l0 4.2 l-6.44 0 l0 -19.4 l6.44 0 l0 8.76 l4.84 0 l0 -8.76 z M31.12 10.239999999999998 l0 7.68 l-18.56 0 l0 22.08 l-6.8 0 l0 -22.08 l-5.76 0 l0 -7.68 l31.12 0 z M43.68 31.48 c-0.16 -0.2 -0.36 -0.28 -0.56 -0.28 l-3.16 0 l0 7.32 l-6.84 0 l0 -28.28 l9.24 0 c7.36 0 8.8 1.76 8.8 5.36 l0 7.12 c0 3.12 -2.4 3.64 -4.24 4.16 c1.84 1.12 4.04 1.8 4.04 5.76 l-0.12 7.36 l-6.84 0 l0.08 -7.44 c0 -0.44 -0.12 -0.84 -0.4 -1.08 z M39.959999999999994 23 c0.36 0.12 0.8 0.16 1.36 0.16 c1.96 0 2.6 -0.64 2.6 -2.16 l0 -2.96 c0 -1.52 -0.44 -2.24 -2.6 -2.24 c-0.56 0 -1 0.04 -1.36 0.16 l0 7.04 z M65.52 29.68 l-7.48 0 l0 1.76 l6.12 0 l0 2.88 l-6.12 0 l0 1.64 l7.48 0 l0 4.04 l-12.28 0 l-0.08 0 l0 -14.36 l12.36 0 l0 4.04 z M65.52 14.280000000000001 l-7.48 0 l0 1.76 l6.12 0 l0 2.88 l-6.12 0 l0 1.64 l7.48 0 l0 4.04 l-12.28 0 l-0.08 0 l0 -14.36 l12.36 0 l0 4.04 z M76.64 10.239999999999998 c6.36 0 8.44 1.88 8.44 5.48 l0 7.32 c0 3.4 -1.8 5.04 -7.36 5.24 c-0.36 0 -2.2 0 -2.68 -0.04 c-1.56 0 -1.96 0.6 -1.96 1.36 l0 1.96 c0 0.96 0.76 1.4 3.04 1.4 l2.6 0 l0 -1.64 l6.36 0 l0 8.68 l-17.56 0 l0 -12.28 c0 -2.96 3.52 -3.28 6.2 -3.28 l1.8 0 c2.4 0 2.6 -2.24 2.64 -2.44 l0 -3.44 c0 -1.72 -0.8 -2.6 -2.36 -2.6 c-1.72 0 -2.52 0.84 -2.52 2.6 l0 3.2 l-5.76 0 l0 -6.04 c0 -3.68 2.08 -5.48 9.12 -5.48 z M95.88 10.239999999999998 c6.68 0 8.84 1.88 8.84 5.48 l0 7.32 c0 1.4 -1.68 2.08 -3 2.08 c1.44 0 3 0.72 3 2.12 l0 7.28 c0 3.6 -2.16 5.48 -8.84 5.48 c-6.64 0 -8.8 -1.88 -8.8 -5.48 l0 -7.28 c0 -1.4 1.56 -2.12 3 -2.12 c-1.32 0 -3 -0.68 -3 -2.08 l0 -7.32 c0 -3.6 2.16 -5.48 8.8 -5.48 z M97.96 33.4 l0 -3.36 l0 -0.2 c-0.04 -2.56 -4.08 -2.56 -4.12 0 c-0.04 0.08 -0.04 0.12 -0.04 0.2 l0.04 3.36 c0 0.2 0 0.4 0.08 0.6 c0.52 1.88 3.44 1.88 3.96 0 c0.08 -0.2 0.08 -0.4 0.08 -0.6 z M97.96 20.72 l0 -3.36 l0 -0.2 c-0.04 -2.56 -4.08 -2.56 -4.12 0 c-0.04 0.08 -0.04 0.12 -0.04 0.2 l0.04 3.36 c0 0.2 0 0.4 0.08 0.6 c0.52 1.88 3.44 1.88 3.96 0 c0.08 -0.2 0.08 -0.4 0.08 -0.6 z"/></g>
			</g>
		</svg>
	